<?xml version="1.0" encoding="UTF-8"?>
<svg width="65px" height="70px" viewBox="0 0 65 70" version="1.1" xmlns="http://www.w3.org/2000/svg" xmlns:xlink="http://www.w3.org/1999/xlink">
    <!-- Generator: Sketch 51.2 (57519) - http://www.bohemiancoding.com/sketch -->
    <title>add_icon</title>
    <desc>Created with Sketch.</desc>
    <defs>
        <polygon id="path-1" points="0.000125 0.198375 49.433125 0.198375 49.433125 69.75 0.000125 69.75"></polygon>
        <polygon id="path-3" points="0 69.80175 64.89775 69.80175 64.89775 0.25 0 0.25"></polygon>
    </defs>
    <g id="add_icon" stroke="none" stroke-width="1" fill="none" fill-rule="evenodd">
        <g id="Page-1">
            <g id="Group-3" transform="translate(0.000000, 0.051750)">
                <mask id="mask-2" fill="white">
                    <use xlink:href="#path-1"></use>
                </mask>
                <g id="Clip-2"></g>
                <path d="M14.383875,6.072375 L19.729375,6.072375 C20.120625,6.070875 20.514125,5.760875 20.605625,5.381375 C21.113375,3.398875 22.906375,2.016375 24.966625,2.016375 C27.026625,2.016375 28.818375,3.393375 29.323625,5.364875 C29.417625,5.754875 29.814125,6.070875 30.208625,6.072375 L35.549375,6.072375 L35.549375,11.014125 L14.383875,11.014125 L14.383875,6.072375 Z M48.975625,46.680875 L47.967875,47.668125 C47.742375,47.889125 47.615125,48.191875 47.615125,48.507625 L47.615125,67.931875 L1.818125,67.931875 L1.818125,8.776125 L12.565875,8.776125 L12.565875,11.923125 C12.565875,12.425125 12.972625,12.832125 13.474625,12.832125 L36.458375,12.832125 C36.960375,12.832125 37.367625,12.424875 37.367625,11.922875 L37.367625,8.776125 L47.615125,8.776125 L47.615125,27.755375 C47.615125,28.080875 48.006625,28.245375 48.239125,28.017625 L49.288375,26.989125 C49.380875,26.898625 49.433125,26.774375 49.433125,26.644875 L49.433125,7.867125 C49.433125,7.364875 49.026125,6.958125 48.524375,6.958125 L37.367625,6.958125 L37.367625,5.163375 C37.367625,4.661125 36.960375,4.254375 36.458375,4.254375 L30.784125,4.254375 L30.666875,3.991125 C29.627125,1.651625 27.442625,0.198375 24.966625,0.198375 C22.490625,0.198375 20.306125,1.651625 19.266125,3.991125 L19.149625,4.254375 L13.474875,4.254375 C12.972625,4.254375 12.565875,4.661125 12.565875,5.163375 L12.565875,6.958125 L0.908125,6.958125 C0.405875,6.959625 0.000625,7.456875 0.000125,7.867875 L0.000125,68.840875 C0.000125,69.342875 0.407125,69.750125 0.909375,69.750125 L48.524375,69.750125 C49.026125,69.750125 49.433125,69.343125 49.433125,68.841125 L49.433125,46.873125 C49.433125,46.634625 49.146125,46.514125 48.975625,46.680875 Z" id="Fill-1" fill="#FF9400" mask="url(#mask-2)"></path>
            </g>
            <path d="M59.688075,30.453225 L55.367825,26.132975 L58.754075,22.746475 L63.074575,27.066975 L59.688075,30.453225 Z M24.465825,54.347475 C24.350825,54.465475 24.235575,54.701225 24.120575,54.819225 L22.020075,62.673725 C21.905075,63.027475 22.020075,63.498975 22.365575,63.852725 C22.711075,64.206475 22.861825,64.155725 23.322575,64.037725 L30.854075,61.413225 C30.969325,61.413225 31.199575,61.295225 31.314575,61.059725 L64.433825,28.614225 C65.233075,27.835975 64.915825,26.552225 64.116825,25.774475 L60.259575,22.044225 C59.432075,21.238475 58.131075,21.238475 57.421825,22.044225 L24.465825,54.347475 Z M28.294075,56.392225 L26.759575,54.857725 C31.313575,50.303725 50.930575,30.686975 53.849575,27.767475 L55.384075,29.302225 L28.294075,56.392225 Z M25.591825,56.959475 C25.708825,57.076225 28.861325,60.229225 28.744825,60.112225 L24.307575,61.396475 L25.591825,56.959475 Z M58.053325,32.087975 C47.894575,42.246725 41.122075,49.019475 30.963325,59.177975 L29.553825,57.768725 L56.643825,30.678475 L58.053325,32.087975 Z" id="Fill-4" fill="#FF9400"></path>
            <mask id="mask-4" fill="white">
                <use xlink:href="#path-3"></use>
            </mask>
            <g id="Clip-7"></g>
            <path d="M9.424,24.51475 L14.595,24.51475 L14.595,19.34375 L9.424,19.34375 L9.424,24.51475 Z M15.55475,17.50875 L8.50675,17.50875 C8.0005,17.50875 7.589,17.92025 7.589,18.4265 L7.589,25.43225 C7.589,25.93825 8.0005,26.35 8.50675,26.35 L15.5125,26.35 C16.01875,26.35 16.43025,25.93825 16.43025,25.43225 L16.43025,18.38425 C16.43025,17.84325 15.976,17.50875 15.55475,17.50875 Z" id="Fill-6" fill="#FF9400" mask="url(#mask-4)"></path>
            <path d="M9.424,43.1975 L14.595,43.1975 L14.595,38.02675 L9.424,38.02675 L9.424,43.1975 Z M15.5125,36.1915 L8.50675,36.1915 C8.0005,36.1915 7.589,36.60325 7.589,37.109 L7.589,44.115 C7.589,44.62125 8.0005,45.03275 8.50675,45.03275 L15.5125,45.03275 C16.01875,45.03275 16.43025,44.62125 16.43025,44.115 L16.43025,37.109 C16.43025,36.60325 16.01875,36.1915 15.5125,36.1915 Z" id="Fill-8" fill="#FF9400" mask="url(#mask-4)"></path>
            <path d="M9.424,61.88025 L14.595,61.88025 L14.595,56.7095 L9.424,56.7095 L9.424,61.88025 Z M15.6295,54.8745 L8.50675,54.8745 C8.0005,54.8745 7.589,55.286 7.589,55.79175 L7.589,62.798 C7.589,63.304 8.0005,63.71575 8.50675,63.71575 L15.5125,63.71575 C16.01875,63.71575 16.43025,63.304 16.43025,62.798 L16.43025,55.67525 C16.43025,55.2335 16.07125,54.8745 15.6295,54.8745 Z" id="Fill-9" fill="#FF9400" mask="url(#mask-4)"></path>
            <path d="M41.82285,18.676375 L20.70585,18.676375 C20.13985,18.676375 19.7881,19.027875 19.7881,19.593875 C19.7881,20.160625 20.2646,20.511625 20.70585,20.511625 L41.82285,20.511625 C42.3891,20.511625 42.7406,20.160125 42.7406,19.593875 C42.7406,19.027875 42.3891,18.676375 41.82285,18.676375" id="Fill-10" fill="#FF9400" mask="url(#mask-4)"></path>
            <path d="M41.82285,23.347025 L20.70585,23.347025 C20.13985,23.347025 19.7881,23.698525 19.7881,24.264775 C19.7881,24.831275 20.2646,25.182275 20.70585,25.182275 L41.82285,25.182275 C42.3891,25.182275 42.7406,24.830775 42.7406,24.264775 C42.7406,23.698525 42.3891,23.347025 41.82285,23.347025" id="Fill-11" fill="#FF9400" mask="url(#mask-4)"></path>
            <path d="M33.181975,37.359 L20.705975,37.359 C20.139725,37.359 19.788225,37.7105 19.788225,38.27675 C19.788225,38.8435 20.264475,39.1945 20.705975,39.1945 L33.181975,39.1945 C33.748225,39.1945 34.099725,38.843 34.099725,38.27675 C34.099725,37.7105 33.748225,37.359 33.181975,37.359" id="Fill-12" fill="#FF9400" mask="url(#mask-4)"></path>
            <path d="M28.511325,42.0299 L20.705825,42.0299 C20.139825,42.0299 19.788075,42.3814 19.788075,42.9474 C19.788075,43.51365 20.139825,43.86515 20.705825,43.86515 L28.511325,43.86515 C29.077575,43.86515 29.429075,43.51365 29.429075,42.9474 C29.429075,42.3814 29.077575,42.0299 28.511325,42.0299" id="Fill-13" fill="#FF9400" mask="url(#mask-4)"></path>
        </g>
    </g>
</svg>