<?xml version="1.0" encoding="UTF-8"?>
<svg width="10px" height="10px" viewBox="0 0 10 10" version="1.1" xmlns="http://www.w3.org/2000/svg" xmlns:xlink="http://www.w3.org/1999/xlink">
    <!-- Generator: Sketch 51.2 (57519) - http://www.bohemiancoding.com/sketch -->
    <title>calendar_icon_blue</title>
    <desc>Created with Sketch.</desc>
    <defs></defs>
    <g id="calendar_icon_blue" stroke="none" stroke-width="1" fill="none" fill-rule="evenodd">
        <path d="M1.16619586,8.75050444 L8.16619586,8.75050444 L8.16619586,3.66575868 L1.16619586,3.66575868 L1.16619586,8.75050444 Z M7,1.25 L7,0.625504439 C7,0.27996368 6.73870056,0 6.41666667,0 C6.09463277,0 5.83286252,0.27996368 5.83286252,0.625504439 L5.83286252,1.25 L3.5,1.25 L3.5,0.625504439 C3.5,0.27996368 3.23870056,0 2.91666667,0 C2.59463277,0 2.33333333,0.27996368 2.33333333,0.625504439 L2.33333333,1.25 L1.16666667,1.25 C0.52259887,1.25 0,1.80992736 0,2.5 C0,6.66700296 0,8.75050444 0,8.75050444 C0,8.75050444 0.52259887,10 1.16666667,10 L8.16619586,10 C8.81026365,10 9.33333333,9.44057708 9.33333333,8.75050444 L9.33333333,2.5 C9.33333333,1.80942292 8.81026365,1.25 8.16619586,1.25 L7,1.25 Z" id="Fill-1" fill="#010A2D"></path>
    </g>
</svg>