<?xml version="1.0" encoding="UTF-8"?>
<svg width="24px" height="20px" viewBox="0 0 24 20" version="1.1" xmlns="http://www.w3.org/2000/svg" xmlns:xlink="http://www.w3.org/1999/xlink">
    <!-- Generator: Sketch 51.2 (57519) - http://www.bohemiancoding.com/sketch -->
    <title>car_icon</title>
    <desc>Created with Sketch.</desc>
    <defs>
        <polygon id="path-1" points="0 0.0353571429 23.875225 0.0353571429 23.875225 5 0 5"></polygon>
        <polygon id="path-3" points="0 0.117382716 23.5806667 0.117382716 23.5806667 13.8082469 0 13.8082469"></polygon>
    </defs>
    <g id="car_icon" stroke="none" stroke-width="1" fill="none" fill-rule="evenodd">
        <g id="Page-1-Copy-9">
            <g id="Group-3" transform="translate(0.000000, 15.000000)">
                <mask id="mask-2" fill="white">
                    <use xlink:href="#path-1"></use>
                </mask>
                <g id="Clip-2"></g>
                <path d="M0.918225,4.12583333 C0.918225,4.60892857 1.328475,5.00011905 1.836975,5.00011905 L3.671975,5.00011905 C4.179975,5.00011905 4.590975,4.60892857 4.590975,4.12583333 L4.590975,2.27559524 L19.283975,2.27559524 L19.283975,4.12583333 C19.283975,4.60892857 19.694475,5.00011905 20.201975,5.00011905 L22.037975,5.00011905 C22.546225,5.00011905 22.956975,4.60892857 22.956975,4.12583333 L22.956975,2.27559524 L23.875225,2.27559524 L23.875225,0.0353571429 L-2.5e-05,0.0353571429 L-2.5e-05,2.27559524 L0.918225,2.27559524 L0.918225,4.12583333 Z" id="Fill-1" fill="#00B69C" mask="url(#mask-2)"></path>
            </g>
            <g id="Group-6">
                <mask id="mask-4" fill="white">
                    <use xlink:href="#path-3"></use>
                </mask>
                <g id="Clip-5"></g>
                <path d="M20.1063457,12.7983704 C19.2628889,12.7983704 18.5786914,12.1141728 18.5786914,11.2699753 C18.5786914,10.4255309 19.2631358,9.74133333 20.1063457,9.74133333 C20.951284,9.74133333 21.6347407,10.4255309 21.6347407,11.2699753 C21.6349877,12.1141728 20.951284,12.7983704 20.1063457,12.7983704 Z M3.12066667,8.27911111 L5.1994321,2.7442963 C6.58782716,2.52083951 10.3905432,1.93244444 11.791284,1.93244444 C13.1907901,1.93244444 16.9944938,2.52059259 18.3819012,2.74232099 L20.456716,8.27911111 C20.456716,8.27911111 14.9572099,7.37565432 11.7900494,7.37565432 C8.62165432,7.37565432 3.12066667,8.27911111 3.12066667,8.27911111 Z M3.47424691,12.7983704 C2.62930864,12.7983704 1.94560494,12.1141728 1.94560494,11.2699753 C1.94560494,10.4255309 2.62930864,9.74133333 3.47424691,9.74133333 C4.3177037,9.74133333 5.00239506,10.4255309 5.00239506,11.2699753 C5.00239506,12.1141728 4.3177037,12.7983704 3.47424691,12.7983704 Z M23.5806667,9.18849383 C23.5806667,9.18849383 23.2389383,9.07516049 22.6280741,8.90479012 L19.7122716,1.12479012 C19.7122716,1.12479012 13.6577037,0.117382716 11.7915309,0.117382716 C9.92437037,0.117382716 3.87004938,1.12479012 3.87004938,1.12479012 L0.953506173,8.90479012 C0.341654321,9.07516049 -7.40740741e-05,9.18849383 -7.40740741e-05,9.18849383 L-7.40740741e-05,13.8082469 L23.5806667,13.8082469 L23.5806667,9.18849383 Z" id="Fill-4" fill="#00B69C" mask="url(#mask-4)"></path>
            </g>
        </g>
    </g>
</svg>