<?xml version="1.0" encoding="UTF-8"?>
<svg width="65px" height="70px" viewBox="0 0 65 70" version="1.1" xmlns="http://www.w3.org/2000/svg" xmlns:xlink="http://www.w3.org/1999/xlink">
    <!-- Generator: Sketch 51.2 (57519) - http://www.bohemiancoding.com/sketch -->
    <title>choose_icon</title>
    <desc>Created with Sketch.</desc>
    <defs>
        <polygon id="path-1" points="0.0001015625 0.0796028881 64.9068164 0.0796028881 64.9068164 69.7472924 0.0001015625 69.7472924"></polygon>
        <polygon id="path-3" points="0 69.9203971 64.9068164 69.9203971 64.9068164 0.252707581 0 0.252707581"></polygon>
    </defs>
    <g id="choose_icon" stroke="none" stroke-width="1" fill="none" fill-rule="evenodd">
        <g id="Page-1">
            <g id="Group-3" transform="translate(0.000000, 0.173105)">
                <mask id="mask-2" fill="white">
                    <use xlink:href="#path-1"></use>
                </mask>
                <g id="Clip-2"></g>
                <path d="M57.7515859,67.8866065 L7.15594141,67.8866065 C4.24160547,67.8866065 1.870375,65.5265704 1.870375,62.6259928 L1.870375,23.1816245 L63.038168,23.1816245 L63.038168,62.6249819 C63.038168,65.5265704 60.6669375,67.8866065 57.7515859,67.8866065 Z M5.98771875,7.14050542 L5.98771875,9.62234657 C5.98771875,10.9733213 7.09246484,12.0731047 8.44959375,12.0731047 L10.485668,12.0731047 C11.842543,12.0731047 12.947543,10.9733213 12.947543,9.62234657 L12.947543,7.0065704 L28.8105898,7.0065704 L28.8105898,9.62234657 C28.8105898,10.9733213 29.915082,12.0731047 31.2724648,12.0731047 L33.3080312,12.0731047 C34.6654141,12.0731047 35.7701602,10.9733213 35.7701602,9.62234657 L35.7701602,7.0065704 L51.6329531,7.0065704 L51.6329531,9.62234657 C51.6329531,10.9733213 52.7379531,12.0731047 54.095082,12.0731047 L56.1316641,12.0731047 C57.4890469,12.0731047 58.593793,10.9733213 58.593793,9.62234657 L58.593793,7.0801083 C61.1102578,7.48292419 63.0401992,9.65241877 63.0401992,12.2681949 L63.0401992,21.3209386 L1.86935937,21.3209386 L1.86935937,12.2681949 C1.86935937,9.7565343 3.61445703,7.66790614 5.98771875,7.14050542 Z M7.85697656,2.5301083 C7.85697656,2.20436823 8.1225625,1.94028881 8.44959375,1.94028881 L10.485668,1.94028881 C10.8126992,1.94028881 11.0782852,2.20436823 11.0782852,2.5301083 L11.0782852,9.62234657 C11.0782852,9.94808664 10.8126992,10.2121661 10.485668,10.2121661 L8.44959375,10.2121661 C8.1225625,10.2121661 7.85697656,9.94808664 7.85697656,9.62234657 L7.85697656,2.5301083 Z M30.678832,2.5301083 C30.678832,2.20436823 30.944418,1.94028881 31.2714492,1.94028881 L33.3072695,1.94028881 C33.6345547,1.94028881 33.8998867,2.20436823 33.8998867,2.5301083 L33.8998867,9.62234657 C33.8998867,9.94808664 33.6345547,10.2121661 33.3072695,10.2121661 L31.2714492,10.2121661 C30.944418,10.2121661 30.678832,9.94808664 30.678832,9.62234657 L30.678832,2.5301083 Z M53.5017031,2.5301083 C53.5017031,2.20436823 53.7670352,1.94028881 54.0943203,1.94028881 L56.1309023,1.94028881 C56.4579336,1.94028881 56.7235195,2.20436823 56.7235195,2.5301083 L56.7235195,9.62234657 C56.7235195,9.94808664 56.4579336,10.2121661 56.1309023,10.2121661 L54.0943203,10.2121661 C53.7670352,10.2121661 53.5017031,9.94808664 53.5017031,9.62234657 L53.5017031,2.5301083 Z M58.5920156,5.1999639 L58.5920156,2.5301083 C58.5920156,1.17913357 57.4870156,0.0796028881 56.1298867,0.0796028881 L54.0933047,0.0796028881 C52.7359219,0.0796028881 51.6311758,1.17913357 51.6311758,2.5301083 L51.6311758,5.14689531 L35.7693984,5.14689531 L35.7693984,2.5301083 C35.7693984,1.17913357 34.6643984,0.0796028881 33.3072695,0.0796028881 L31.2714492,0.0796028881 C29.9143203,0.0796028881 28.8095742,1.17913357 28.8095742,2.5301083 L28.8095742,5.14689531 L12.9465273,5.14689531 L12.9465273,2.5301083 C12.9465273,1.17913357 11.8417813,0.0796028881 10.4846523,0.0796028881 L8.44883203,0.0796028881 C7.09170313,0.0796028881 5.98670313,1.17913357 5.98670313,2.5301083 L5.98670313,5.24646209 C2.56658594,5.7998917 0.0001015625,8.72498195 0.0001015625,12.2681949 L0.0001015625,62.6259928 C0.0001015625,66.5528159 3.20973047,69.7472924 7.15517969,69.7472924 L57.7515859,69.7472924 C61.6970352,69.7472924 64.906918,66.5518051 64.906918,62.6259928 L64.906918,12.2681949 C64.9079336,8.62440433 62.1428945,5.61592058 58.5920156,5.1999639 Z" id="Fill-1" fill="#FF9400" mask="url(#mask-2)"></path>
            </g>
            <mask id="mask-4" fill="white">
                <use xlink:href="#path-3"></use>
            </mask>
            <g id="Clip-5"></g>
            <path d="M9.02458984,39.6579061 L19.3369922,39.6579061 L19.3369922,30.9177617 L9.02458984,30.9177617 L9.02458984,39.6579061 Z M45.5705859,39.6579061 L55.8832422,39.6579061 L55.8832422,30.9177617 L45.5705859,30.9177617 L45.5705859,39.6579061 Z M45.5705859,60.8565343 L55.8832422,60.8565343 L55.8832422,52.1174007 L45.5705859,52.1174007 L45.5705859,60.8565343 Z M9.02458984,50.2569675 L19.3369922,50.2569675 L19.3369922,41.5178339 L9.02458984,41.5178339 L9.02458984,50.2569675 Z M21.2067578,50.2577256 L31.5191602,50.2577256 L31.5191602,41.5185921 L21.2067578,41.5185921 L21.2067578,50.2577256 Z M21.2067578,39.6579061 L31.5191602,39.6579061 L31.5191602,30.9177617 L21.2067578,30.9177617 L21.2067578,39.6579061 Z M33.388418,39.6579061 L43.7010742,39.6579061 L43.7010742,30.9177617 L33.388418,30.9177617 L33.388418,39.6579061 Z M21.2067578,60.8565343 L31.5191602,60.8565343 L31.5191602,52.1174007 L21.2067578,52.1174007 L21.2067578,60.8565343 Z M33.388418,60.8565343 L43.7010742,60.8565343 L43.7010742,52.1174007 L33.388418,52.1174007 L33.388418,60.8565343 Z M45.5705859,50.2577256 L55.8832422,50.2577256 L55.8832422,41.5185921 L45.5705859,41.5185921 L45.5705859,50.2577256 Z M33.388418,50.2569675 L43.7010742,50.2569675 L43.7010742,41.5178339 L33.388418,41.5178339 L33.388418,50.2569675 Z M9.02458984,60.8565343 L19.3369922,60.8565343 L19.3369922,52.1174007 L9.02458984,52.1174007 L9.02458984,60.8565343 Z M7.15507813,62.7169675 L57.7525,62.7169675 L57.7525,29.0573285 L7.15507813,29.0573285 L7.15507813,62.7169675 Z" id="Fill-4" fill="#FF9400" mask="url(#mask-4)"></path>
            <path d="M14.1588027,33.0848809 C15.4209707,33.0848809 16.443959,34.1030397 16.443959,35.3592491 C16.443959,36.6152058 15.4209707,37.6336173 14.1588027,37.6336173 C12.8968887,37.6336173 11.8736465,36.6152058 11.8736465,35.3592491 C11.8736465,34.1030397 12.8968887,33.0848809 14.1588027,33.0848809" id="Fill-6" fill="#FF9400" mask="url(#mask-4)"></path>
            <path d="M26.3100957,33.0848809 C27.5722637,33.0848809 28.595252,34.1030397 28.595252,35.3592491 C28.595252,36.6152058 27.5722637,37.6336173 26.3100957,37.6336173 C25.0479277,37.6336173 24.0249395,36.6152058 24.0249395,35.3592491 C24.0249395,34.1030397 25.0479277,33.0848809 26.3100957,33.0848809" id="Fill-7" fill="#FF9400" mask="url(#mask-4)"></path>
            <path d="M14.1588027,43.6129819 C15.4209707,43.6129819 16.443959,44.6311408 16.443959,45.8873502 C16.443959,47.1433069 15.4209707,48.1617184 14.1588027,48.1617184 C12.8968887,48.1617184 11.8736465,47.1433069 11.8736465,45.8873502 C11.8736465,44.6311408 12.8968887,43.6129819 14.1588027,43.6129819" id="Fill-8" fill="#FF9400" mask="url(#mask-4)"></path>
            <path d="M26.3100957,43.6129819 C27.5722637,43.6129819 28.595252,44.6311408 28.595252,45.8873502 C28.595252,47.1433069 27.5722637,48.1617184 26.3100957,48.1617184 C25.0479277,48.1617184 24.0249395,47.1433069 24.0249395,45.8873502 C24.0249395,44.6311408 25.0479277,43.6129819 26.3100957,43.6129819" id="Fill-9" fill="#FF9400" mask="url(#mask-4)"></path>
            <path d="M38.5603359,33.0848809 C39.8225039,33.0848809 40.8454922,34.1030397 40.8454922,35.3592491 C40.8454922,36.6152058 39.8225039,37.6336173 38.5603359,37.6336173 C37.298168,37.6336173 36.2751797,36.6152058 36.2751797,35.3592491 C36.2751797,34.1030397 37.298168,33.0848809 38.5603359,33.0848809" id="Fill-10" fill="#FF9400" mask="url(#mask-4)"></path>
            <path d="M50.711375,33.0848809 C51.973543,33.0848809 52.9965313,34.1030397 52.9965313,35.3592491 C52.9965313,36.6152058 51.973543,37.6336173 50.711375,37.6336173 C49.449207,37.6336173 48.4262187,36.6152058 48.4262187,35.3592491 C48.4262187,34.1030397 49.449207,33.0848809 50.711375,33.0848809" id="Fill-11" fill="#FF9400" mask="url(#mask-4)"></path>
        </g>
    </g>
</svg>