<?xml version="1.0" encoding="UTF-8"?>
<svg width="18px" height="18px" viewBox="0 0 18 18" version="1.1" xmlns="http://www.w3.org/2000/svg" xmlns:xlink="http://www.w3.org/1999/xlink">
    <!-- Generator: Sketch 51.2 (57519) - http://www.bohemiancoding.com/sketch -->
    <title>door</title>
    <desc>Created with Sketch.</desc>
    <defs></defs>
    <g id="door" stroke="none" stroke-width="1" fill="none" fill-rule="evenodd">
        <path d="M15.9623377,7.71272727 C15.9623377,8.03090909 15.7420779,8.29142857 15.4732468,8.29142857 L3.73818182,8.29142857 C3.46909091,8.29142857 3.42363636,8.13246753 3.63662338,7.93844156 L9.21792208,2.85766234 C9.43116883,2.66337662 9.82571429,2.50441558 10.0945455,2.50441558 L12.5394805,2.50441558 L13.5174026,2.50441558 L15.4732468,2.50441558 C15.7420779,2.50441558 15.9623377,2.76493506 15.9623377,3.08337662 L15.9623377,7.71272727 Z M15.4732468,10.3745455 L13.0285714,10.3745455 C12.8664935,10.3745455 12.7350649,10.218961 12.7350649,10.0272727 C12.7350649,9.83558442 12.8664935,9.68 13.0285714,9.68 L15.4732468,9.68 C15.6353247,9.68 15.7667532,9.83558442 15.7667532,10.0272727 C15.7667532,10.218961 15.6353247,10.3745455 15.4732468,10.3745455 Z M16.4514286,1 L9.60571429,1 C9.27116883,1 8.81714286,1.17922078 8.54961039,1.41662338 L1.50857143,7.66623377 C1.21844156,7.92363636 1,8.4412987 1,8.86987013 L1,15.2353247 C1,15.745974 1.35064935,16.1612987 1.78207792,16.1612987 L16.4514286,16.1612987 C16.8828571,16.1612987 17.2337662,15.745974 17.2337662,15.2353247 L17.2337662,1.92597403 C17.2337662,1.41532468 16.8828571,1 16.4514286,1 Z" id="Fill-1" fill="#AFB7BE"></path>
    </g>
</svg>