<?xml version="1.0" encoding="UTF-8"?>
<svg width="15px" height="15px" viewBox="0 0 15 15" version="1.1" xmlns="http://www.w3.org/2000/svg" xmlns:xlink="http://www.w3.org/1999/xlink">
    <!-- Generator: Sketch 51.2 (57519) - http://www.bohemiancoding.com/sketch -->
    <title>end_date</title>
    <desc>Created with Sketch.</desc>
    <defs>
        <polygon id="path-1" points="0 0 15 0 15 15 0 15"></polygon>
    </defs>
    <g id="end_date" stroke="none" stroke-width="1" fill="none" fill-rule="evenodd">
        <g id="Page-1-Copy-7">
            <mask id="mask-2" fill="white">
                <use xlink:href="#path-1"></use>
            </mask>
            <g id="Clip-2"></g>
            <path d="M10.6756961,11.6934019 L8.67130751,11.6934019 C8.23168886,11.6934019 7.87530266,11.3370157 7.87530266,10.8966404 L7.87530266,8.89225182 C7.87530266,8.45263317 8.23168886,8.09624697 8.67130751,8.09624697 L10.6756961,8.09624697 C11.1160714,8.09624697 11.4724576,8.45263317 11.4724576,8.89225182 L11.4724576,10.8966404 C11.4724576,11.3370157 11.1160714,11.6934019 10.6756961,11.6934019 Z M1.87424334,13.1257567 L13.1242433,13.1257567 L13.1242433,5.49863801 L1.87424334,5.49863801 L1.87424334,13.1257567 Z M13.1242433,1.875 L11.25,1.875 L11.25,0.938256659 C11.25,0.419945521 10.8300545,0 10.3125,0 C9.79494552,0 9.37424334,0.419945521 9.37424334,0.938256659 L9.37424334,1.875 L5.625,1.875 L5.625,0.938256659 C5.625,0.419945521 5.20505448,0 4.6875,0 C4.16994552,0 3.75,0.419945521 3.75,0.938256659 L3.75,1.875 L1.875,1.875 C0.839891041,1.875 0,2.71489104 0,3.75 L0,13.1257567 C0,14.1608656 0.839891041,15 1.875,15 L13.1242433,15 C14.1593523,15 15,14.1608656 15,13.1257567 L15,3.75 C15,2.71413438 14.1593523,1.875 13.1242433,1.875 Z" id="Fill-1" fill="#00B69C" mask="url(#mask-2)"></path>
        </g>
    </g>
</svg>