<?xml version="1.0" encoding="UTF-8"?>
<svg width="23px" height="20px" viewBox="0 0 23 20" version="1.1" xmlns="http://www.w3.org/2000/svg" xmlns:xlink="http://www.w3.org/1999/xlink">
    <!-- Generator: Sketch 51.2 (57519) - http://www.bohemiancoding.com/sketch -->
    <title>favourite_icon</title>
    <desc>Created with Sketch.</desc>
    <defs>
        <polygon id="path-1" points="0 0 22.4025974 0 22.4025974 19.8654318 0 19.8654318"></polygon>
    </defs>
    <g id="favourite_icon" stroke="none" stroke-width="1" fill="none" fill-rule="evenodd">
        <g id="Page-1">
            <mask id="mask-2" fill="white">
                <use xlink:href="#path-1"></use>
            </mask>
            <g id="Clip-2"></g>
            <path d="M11.2008506,17.5095227 C7.44998377,14.8031591 2.0932987,9.95906818 2.0932987,7.15588636 C2.0932987,5.04611364 3.65319156,2.12361364 6.58188312,2.12361364 C9.246,2.12361364 10.186461,4.45770455 10.2227532,4.55020455 C10.375763,4.96020455 10.7631039,5.22838636 11.19525,5.23202273 L11.2026429,5.23202273 C11.6321006,5.23202273 12.0194416,4.96225 12.1776039,4.55725 C12.2161364,4.45770455 13.1570455,2.12361364 15.8202662,2.12361364 C18.7491818,2.12361364 20.3095227,5.04588636 20.3095227,7.15588636 C20.3092987,9.95588636 14.9521656,14.8011136 11.2008506,17.5095227 M15.8200422,-2.27272727e-05 C13.5078701,-2.27272727e-05 12.0483409,1.14156818 11.2012987,2.17384091 C10.3542565,1.14156818 8.8949513,-2.27272727e-05 6.58188312,-2.27272727e-05 C2.64462662,-2.27272727e-05 0,3.70020455 0,7.15588636 C0,12.1865682 9.52513636,18.9288409 10.6112143,19.6808864 C10.7890909,19.8038409 10.9951948,19.8654318 11.2012987,19.8654318 C11.4074026,19.8654318 11.6135065,19.8038409 11.7913831,19.6808864 C12.877461,18.9288409 22.4025974,12.1865682 22.4025974,7.15588636 C22.4025974,3.70020455 19.7575227,-2.27272727e-05 15.8200422,-2.27272727e-05" id="Fill-1" fill="#00B69C" mask="url(#mask-2)"></path>
        </g>
    </g>
</svg>