<?xml version="1.0" encoding="UTF-8"?>
<svg width="22px" height="17px" viewBox="0 0 22 17" version="1.1" xmlns="http://www.w3.org/2000/svg" xmlns:xlink="http://www.w3.org/1999/xlink">
    <!-- Generator: Sketch 51.2 (57519) - http://www.bohemiancoding.com/sketch -->
    <title>flight_arriving_icon</title>
    <desc>Created with Sketch.</desc>
    <defs></defs>
    <g id="flight_arriving_icon" stroke="none" stroke-width="1" fill="none" fill-rule="evenodd">
        <g id="flight-landing" transform="translate(10.676918, 8.006938) rotate(6.000000) translate(-10.676918, -8.006938) translate(0.676918, 1.006938)" fill="#00B69C">
            <path d="M1.02917223,7.68605742 C4.9948762,8.9581003 15.7016504,12.2962666 16.2842894,12.5087523 C17.6717115,13.0146458 19.5467544,13.2715082 19.9477102,12.5834095 C20.0411622,12.4228705 20.1387908,10.8164367 17.2365595,9.63288603 C16.5534206,9.35435745 15.109092,8.88448731 13.1353764,8.27156782 L9.43593213,0.490518321 L7.85638534,2.61038966e-05 L8.53743601,6.82750026 C6.0995931,6.05560804 2.22394757,4.69455087 2.22394757,4.69455087 L1.50739561,1.75812354 C1.46771769,1.59601834 1.34607353,1.46680405 1.18683976,1.41720665 L0.721668325,1.27259106 L0.0158189613,6.0587405 C-0.0896407809,6.77607558 0.338463123,7.46443534 1.02917223,7.68605742" id="Fill-1"></path>
        </g>
    </g>
</svg>