<?xml version="1.0" encoding="UTF-8"?>
<svg width="16px" height="18px" viewBox="0 0 16 18" version="1.1" xmlns="http://www.w3.org/2000/svg" xmlns:xlink="http://www.w3.org/1999/xlink">
    <!-- Generator: Sketch 51.2 (57519) - http://www.bohemiancoding.com/sketch -->
    <title>flight_icon</title>
    <desc>Created with Sketch.</desc>
    <defs></defs>
    <g id="flight_icon" stroke="none" stroke-width="1" fill="none" fill-rule="evenodd">
        <g id="flight-no" fill="#00B69C">
            <path d="M5.99016,1.86216 L5.99016,5.6616 L0.25968,8.8404 C0.0972,8.93448 0,9.10368 0,9.31056 L0,10.85304 C0,11.19168 0.27576,11.436 0.552,11.36088 L6.13632,9.8184 L6.50976,15.12264 L4.75632,16.2888 C4.6428,16.36416 4.57776,16.49568 4.57776,16.64616 L4.57776,17.4552 C4.57776,17.7372 4.80528,17.92536 5.03256,17.85 L7.59744,16.94712 L10.16232,17.85 C10.3896,17.92536 10.61688,17.7372 10.61688,17.4552 L10.61688,16.64616 C10.61688,16.49568 10.55208,16.36416 10.43832,16.2888 L8.68512,15.12264 L9.05832,9.8184 L14.62656,11.36088 C14.9028,11.436 15.17856,11.19168 15.17856,10.85304 L15.17856,9.31056 C15.17856,9.10368 15.08112,8.93448 14.91888,8.8404 L9.20472,5.6616 L9.20472,1.86216 C9.20472,0.82752 8.47416,0 7.59744,0 C6.70464,0 5.99016,0.84648 5.99016,1.86216" id="Fill-1"></path>
        </g>
    </g>
</svg>