<?xml version="1.0" encoding="UTF-8"?>
<svg width="24px" height="24px" viewBox="0 0 24 24" version="1.1" xmlns="http://www.w3.org/2000/svg" xmlns:xlink="http://www.w3.org/1999/xlink">
    <!-- Generator: Sketch 51.2 (57519) - http://www.bohemiancoding.com/sketch -->
    <title>instagram_icon</title>
    <desc>Created with Sketch.</desc>
    <defs>
        <polygon id="path-1" points="0 0.457371429 22.8576 0.457371429 22.8576 23.3141486 0 23.3141486"></polygon>
    </defs>
    <g id="instagram_icon" stroke="none" stroke-width="1" fill="none" fill-rule="evenodd">
        <g id="Page-1">
            <path d="M14.9384229,9.40210286 C14.4981943,9.40278857 14.1423086,9.04758857 14.1416229,8.60873143 C14.1402514,8.16918857 14.4954514,7.81330286 14.9349943,7.81330286 C15.3793371,7.81330286 15.7297371,8.16164571 15.7297371,8.60461714 C15.7304229,9.04553143 15.37728,9.40210286 14.9384229,9.40210286 M11.4159086,15.4939886 C9.54733714,15.4864457 8.04562286,13.9765029 8.04905143,12.1079314 C8.05248,10.2338743 9.56790857,8.72736 11.44128,8.73421714 C13.3105371,8.74176 14.8122514,10.2510171 14.8088229,12.1202743 C14.8053943,13.9943314 13.2899657,15.5015314 11.4159086,15.4939886 M16.6657371,8.66976 C16.49568,7.75570286 15.9354514,7.14816 15.0282514,6.91296 C14.6613943,6.81764571 14.2719086,6.77718857 13.8920229,6.76758857 C13.0719086,6.74633143 12.2504229,6.76073143 11.4296229,6.76073143 L11.4296229,6.74564571 C10.8008229,6.74564571 10.1720229,6.73398857 9.54390857,6.74907429 C9.07899429,6.76004571 8.61133714,6.77856 8.15259429,6.84233143 C7.04516571,6.99593143 6.30116571,7.73033143 6.15990857,8.83707429 C6.07968,9.46244571 6.05979429,10.0987886 6.05225143,10.7303314 C6.03853714,11.8158171 6.04676571,12.9006171 6.06390857,13.9861029 C6.07008,14.45376 6.09270857,14.9269029 6.15648,15.38976 C6.31076571,16.4978743 7.04448,17.24256 8.15122286,17.3838171 C8.77728,17.46336 9.41293714,17.4832457 10.04448,17.4914743 C11.1299657,17.5045029 12.2154514,17.4962743 13.2995657,17.4791314 C13.76928,17.4722743 14.2410514,17.4496457 14.7045943,17.38656 C15.8127086,17.2322743 16.5567086,16.49856 16.69728,15.3911314 C16.7775086,14.76576 16.79808,14.1301029 16.8063086,13.4978743 C16.8193371,12.41376 16.8145371,11.3282743 16.79328,10.2427886 C16.7823086,9.71753143 16.7610514,9.18473143 16.6657371,8.66976" id="Fill-1" fill="#FFFFFF"></path>
            <path d="M11.4301714,9.92777143 C10.2404571,9.92571429 9.24754286,10.9090286 9.24617143,12.0905143 C9.2448,13.3028571 10.2130286,14.2944 11.3986286,14.2971429 C12.6308571,14.2992 13.6162286,13.3261714 13.6155429,12.1083429 C13.6148571,10.9152 12.6267429,9.92914286 11.4301714,9.92777143" id="Fill-3" fill="#FFFFFF"></path>
            <g id="Group-7" transform="translate(0.000000, 0.228343)">
                <mask id="mask-2" fill="white">
                    <use xlink:href="#path-1"></use>
                </mask>
                <g id="Clip-6"></g>
                <path d="M18,14.1914057 C17.9814857,14.4478629 17.9629714,14.70432 17.9410286,14.9600914 C17.8882286,15.5573486 17.7483429,16.1340343 17.4432,16.6538057 C16.7856,17.7742629 15.7584,18.2816914 14.5028571,18.3975771 C14.2470857,18.4208914 13.9906286,18.4373486 13.7348571,18.4572343 L9.12342857,18.4572343 C8.86697143,18.4373486 8.61051429,18.4202057 8.35542857,18.3975771 C7.75748571,18.3447771 7.18148571,18.2055771 6.66102857,17.8997486 C5.54057143,17.2428343 5.03382857,16.2149486 4.91657143,14.9600914 C4.89325714,14.70432 4.87748571,14.4478629 4.8576,14.1914057 L4.8576,9.57929143 C4.87748571,9.32352 4.89394286,9.06706286 4.91657143,8.81129143 C4.97691429,8.15437714 5.14011429,7.52694857 5.50422857,6.97014857 C6.17074286,5.94843429 7.15954286,5.48694857 8.34102857,5.37517714 C8.60091429,5.34980571 8.86217143,5.33472 9.12342857,5.31483429 L13.7348571,5.31483429 C13.9906286,5.33403429 14.2470857,5.35049143 14.5028571,5.37449143 C15.1597714,5.43414857 15.7872,5.59666286 16.3446857,5.96077714 C17.3657143,6.62797714 17.8278857,7.61609143 17.9396571,8.79757714 C17.9643429,9.05814857 17.9808,9.31940571 18,9.57929143 L18,14.1914057 Z M0,23.3141486 L22.8576,23.3141486 L22.8576,0.457234286 L0,0.457234286 L0,23.3141486 Z" id="Fill-5" fill="#FFFFFF" mask="url(#mask-2)"></path>
            </g>
        </g>
    </g>
</svg>