<?xml version="1.0" encoding="UTF-8"?>
<svg width="24px" height="24px" viewBox="0 0 24 24" version="1.1" xmlns="http://www.w3.org/2000/svg" xmlns:xlink="http://www.w3.org/1999/xlink">
    <!-- Generator: Sketch 51.2 (57519) - http://www.bohemiancoding.com/sketch -->
    <title>linkedin_icon</title>
    <desc>Created with Sketch.</desc>
    <defs>
        <polygon id="path-1" points="7.05882353e-05 0.000141176471 23.5284706 0.000141176471 23.5284706 23.5291765 7.05882353e-05 23.5291765"></polygon>
    </defs>
    <g id="linkedin_icon" stroke="none" stroke-width="1" fill="none" fill-rule="evenodd">
        <g id="Page-1">
            <mask id="mask-2" fill="white">
                <use xlink:href="#path-1"></use>
            </mask>
            <g id="Clip-2"></g>
            <path d="M19.1732471,18.8464941 L15.9981882,18.8464941 L15.9981882,13.7330824 C15.9981882,12.4490824 15.5379529,11.5716706 14.3880706,11.5716706 C13.5113647,11.5716706 12.9883059,12.1639059 12.7581882,12.7335529 C12.6748941,12.9382588 12.6551294,13.2234353 12.6551294,13.5086118 L12.6551294,18.8464941 L9.47724706,18.8464941 C9.47724706,18.8464941 9.5196,10.1853176 9.47724706,9.28884706 L12.6551294,9.28884706 L12.6551294,10.6427294 C13.0765412,9.9912 13.8318353,9.06508235 15.5160706,9.06508235 C17.6068941,9.06508235 19.1732471,10.4302588 19.1732471,13.3660235 L19.1732471,18.8464941 Z M6.13207059,7.98437647 L6.11089412,7.98437647 C5.04501176,7.98437647 4.35465882,7.25025882 4.35465882,6.33261176 C4.35465882,5.3952 5.06548235,4.68225882 6.15183529,4.68225882 C7.2396,4.68225882 7.90807059,5.3952 7.92783529,6.33261176 C7.92783529,7.25025882 7.2396,7.98437647 6.13207059,7.98437647 Z M4.54242353,18.8464941 L7.7196,18.8464941 L7.7196,9.28884706 L4.54242353,9.28884706 L4.54242353,18.8464941 Z M7.05882353e-05,23.5293176 L23.5285412,23.5293176 L23.5285412,0.000141176471 L7.05882353e-05,0.000141176471 L7.05882353e-05,23.5293176 Z" id="Fill-1" fill="#FFFFFF" mask="url(#mask-2)"></path>
        </g>
    </g>
</svg>