<?xml version="1.0" encoding="UTF-8"?>
<svg width="10px" height="8px" viewBox="0 0 10 8" version="1.1" xmlns="http://www.w3.org/2000/svg" xmlns:xlink="http://www.w3.org/1999/xlink">
    <!-- Generator: Sketch 51.2 (57519) - http://www.bohemiancoding.com/sketch -->
    <title>luggage_icon</title>
    <desc>Created with Sketch.</desc>
    <defs>
        <polygon id="path-1" points="2.46153846e-05 -1.42108547e-14 9.83382154 -1.42108547e-14 9.83382154 7.95076923 2.46153846e-05 7.95076923"></polygon>
    </defs>
    <g id="luggage_icon" stroke="none" stroke-width="1" fill="none" fill-rule="evenodd">
        <g id="Page-1">
            <mask id="mask-2" fill="white">
                <use xlink:href="#path-1"></use>
            </mask>
            <g id="Clip-2"></g>
            <path d="M3.52,1.15692308 L6.31384615,1.15692308 L6.31384615,0.664615385 L3.52,0.664615385 L3.52,1.15692308 Z M1.87076923,7.71692308 L7.93846154,7.71692308 L7.93846154,1.15692308 L6.95384615,1.15692308 L6.95384615,0.332307692 C6.95384615,0.147692308 6.80615385,-1.42108547e-14 6.62153846,-1.42108547e-14 L3.18769231,-1.42108547e-14 C3.00307692,-1.42108547e-14 2.86769231,0.147692308 2.86769231,0.332307692 L2.86769231,1.15692308 L1.88307692,1.15692308 L1.88307692,7.71692308 L1.87076923,7.71692308 Z" id="Fill-1" fill="#010A2D" mask="url(#mask-2)"></path>
            <path d="M1.55079385,1.15693538 L0.812332308,1.15693538 C0.356947692,1.15693538 2.46153846e-05,1.52616615 2.46153846e-05,1.98155077 L2.46153846e-05,6.90462769 C2.46153846e-05,7.24924308 0.221563077,7.55693538 0.529255385,7.66770462 C0.553870769,7.82770462 0.689255385,7.95078154 0.849255385,7.95078154 C0.996947692,7.95078154 1.12002462,7.85232 1.15694769,7.71693538 L1.55079385,7.71693538 L1.55079385,1.15693538 Z" id="Fill-3" fill="#010A2D" mask="url(#mask-2)"></path>
            <path d="M9.00920615,1.15693538 L8.28317538,1.15693538 L8.28317538,7.71693538 L8.66459077,7.71693538 C8.70151385,7.85232 8.83702154,7.95078154 8.97228308,7.95078154 C9.14471385,7.95078154 9.27997538,7.82770462 9.30459077,7.66770462 C9.61228308,7.54462769 9.83382154,7.24924308 9.83382154,6.90462769 L9.83382154,1.98155077 C9.83382154,1.52616615 9.46459077,1.15693538 9.00920615,1.15693538" id="Fill-4" fill="#010A2D" mask="url(#mask-2)"></path>
        </g>
    </g>
</svg>