<?xml version="1.0" encoding="UTF-8"?>
<svg width="24px" height="18px" viewBox="0 0 24 18" version="1.1" xmlns="http://www.w3.org/2000/svg" xmlns:xlink="http://www.w3.org/1999/xlink">
    <!-- Generator: Sketch 51.2 (57519) - http://www.bohemiancoding.com/sketch -->
    <title>mail_icon</title>
    <desc>Created with Sketch.</desc>
    <defs>
        <polygon id="path-1" points="0 5.2173913e-05 23.9334783 5.2173913e-05 23.9334783 17.470487 0 17.470487"></polygon>
    </defs>
    <g id="mail_icon" stroke="none" stroke-width="1" fill="none" fill-rule="evenodd">
        <g id="Page-1">
            <mask id="mask-2" fill="white">
                <use xlink:href="#path-1"></use>
            </mask>
            <g id="Clip-2"></g>
            <path d="M23.2005652,14.3992696 C23.2005652,15.0185739 22.9535217,15.6149217 22.5228261,16.0351826 L22.3696957,16.1849217 L15.5743043,8.79683478 L22.2316957,1.5590087 C22.2387391,1.55118261 22.2444783,1.54205217 22.2507391,1.53318261 L22.3916087,1.32970435 L22.575,1.48674783 C22.9811739,1.91457391 23.2005652,2.47492174 23.2005652,3.07153043 L23.2005652,14.3992696 Z M21.317087,16.6038783 C21.2573478,16.6096174 21.197087,16.6135304 21.1360435,16.6135304 L2.79795652,16.6135304 C2.77082609,16.6135304 2.74421739,16.6117043 2.7176087,16.6098783 L2.24908696,16.5837913 L8.85117391,9.40622609 L10.1487391,10.8170087 C10.6256087,11.3353565 11.2587391,11.6207478 11.9320435,11.6207478 C12.6056087,11.6207478 13.239,11.3353565 13.7158696,10.8170087 L15.0820435,9.33187826 L21.7347391,16.5647478 L21.317087,16.6038783 Z M1.45030435,16.0740522 C0.994304348,15.6517043 0.732913043,15.0412696 0.732913043,14.3992696 L0.732913043,3.07153043 C0.732913043,2.49318261 0.940826087,1.94535652 1.31830435,1.52926957 L1.51004348,1.31770435 L1.65273913,1.56526957 C1.6683913,1.59292174 1.68456522,1.61535652 1.70152174,1.63361739 L8.35891304,8.87144348 L1.60317391,16.2159652 L1.45030435,16.0740522 Z M2.4363913,0.893008696 C2.56473913,0.869008696 2.68291304,0.857008696 2.79795652,0.857008696 L21.1360435,0.857008696 C21.2263043,0.857008696 21.3199565,0.865095652 21.4303043,0.882052174 L21.8156087,0.941791304 L13.2473478,10.2566609 C12.8975217,10.6367478 12.4305652,10.8459652 11.9325652,10.8459652 C11.4340435,10.8459652 10.967087,10.6367478 10.6172609,10.2566609 L2.06882609,0.962921739 L2.4363913,0.893008696 Z M23.9336087,3.07153043 C23.9336087,1.37770435 22.6785652,5.2173913e-05 21.1360435,5.2173913e-05 L2.79795652,5.2173913e-05 C1.25517391,5.2173913e-05 -0.000130434783,1.37770435 -0.000130434783,3.07153043 L-0.000130434783,14.3990087 C-0.000130434783,16.0925739 1.25517391,17.470487 2.79795652,17.470487 L21.1363043,17.470487 C22.6788261,17.470487 23.9336087,16.0928348 23.9336087,14.3992696 L23.9336087,3.07153043 Z" id="Fill-1" fill="#FFFFFF" mask="url(#mask-2)"></path>
        </g>
    </g>
</svg>