<?xml version="1.0" encoding="UTF-8"?>
<svg width="18px" height="16px" viewBox="0 0 18 16" version="1.1" xmlns="http://www.w3.org/2000/svg" xmlns:xlink="http://www.w3.org/1999/xlink">
    <!-- Generator: Sketch 51.2 (57519) - http://www.bohemiancoding.com/sketch -->
    <title>note_icon</title>
    <desc>Created with Sketch.</desc>
    <defs></defs>
    <g id="note_icon" stroke="none" stroke-width="1" fill="none" fill-rule="evenodd">
        <g id="note-icon" fill="#00B69C">
            <path d="M2.87141818,2.99185455 C3.02632727,2.93003636 3.11941818,2.77149091 3.09832727,2.6064 C3.07650909,2.44130909 2.9456,2.31185455 2.77978182,2.29221818 L1.86123636,2.18385455 C1.66487273,2.15985455 1.4816,2.30167273 1.4576,2.50021818 L0.00305454545,14.1373091 C-0.00930909091,14.2333091 0.0183272727,14.3300364 0.0786909091,14.4064 C0.138327273,14.4827636 0.226327273,14.5322182 0.323054545,14.5431273 L2.75214545,14.8209455 C2.76596364,14.8224 2.77978182,14.8231273 2.7936,14.8231273 C2.88814545,14.8231273 2.97978182,14.7860364 3.04814545,14.7191273 C3.12669091,14.6427636 3.16596364,14.5358545 3.15578182,14.4253091 L2.18705455,4.10167273 C2.14123636,3.61876364 2.41614545,3.17221818 2.87141818,2.99185455" id="Fill-1"></path>
            <path d="M16.1250182,3.52378182 C16.1075636,3.37687273 16.0013818,3.25614545 15.8588364,3.2176 C15.7162909,3.1776 15.5650182,3.23141818 15.4748364,3.34923636 C14.8544727,4.16669091 13.8522909,4.55650909 12.7999273,4.2736 C12.6755636,4.2416 12.5410182,4.27505455 12.4486545,4.36741818 L11.3170182,5.49905455 C10.9053818,5.91069091 10.1861091,5.91069091 9.7752,5.49905455 C9.56792727,5.29250909 9.45447273,5.01905455 9.45447273,4.72741818 C9.45447273,4.43578182 9.56792727,4.16232727 9.77447273,3.95578182 L10.2653818,3.46414545 C10.3744727,3.35505455 10.4028364,3.18778182 10.3359273,3.04814545 C10.2675636,2.90923636 10.1155636,2.82705455 9.96574545,2.84669091 L3.22974545,3.63941818 C3.03338182,3.66269091 2.89156364,3.83796364 2.91047273,4.03432727 L4.00138182,15.6706909 C4.01083636,15.7674182 4.05883636,15.8568727 4.13447273,15.9179636 C4.1992,15.9717818 4.28065455,16.0001455 4.36356364,16.0001455 C4.37738182,16.0001455 4.3912,15.9994182 4.40501818,15.9979636 L17.1322909,14.5434182 C17.2297455,14.5325091 17.3170182,14.4830545 17.3766545,14.4059636 C17.4370182,14.3303273 17.4639273,14.2328727 17.4522909,14.1368727 L16.1250182,3.52378182 Z" id="Fill-3"></path>
            <path d="M10.2883636,4.46981818 C10.1465455,4.61163636 10.1465455,4.84218182 10.2883636,4.984 C10.3596364,5.05527273 10.4527273,5.09090909 10.5458182,5.09090909 C10.6381818,5.09090909 10.7312727,5.05527273 10.8025455,4.98472727 L12.4541818,3.33381818 C12.7407273,3.52436364 13.0847273,3.63636364 13.4549091,3.63636364 C14.4570909,3.63636364 15.2730909,2.82036364 15.2730909,1.81818182 C15.2730909,0.816 14.4570909,0 13.4549091,0 C12.452,0 11.6367273,0.816 11.6367273,1.81818182 C11.6367273,2.18836364 11.7487273,2.53163636 11.9392727,2.81963636 L10.2883636,4.46981818 Z" id="Fill-6"></path>
        </g>
    </g>
</svg>