<?xml version="1.0" encoding="UTF-8"?>
<svg width="13px" height="10px" viewBox="0 0 13 10" version="1.1" xmlns="http://www.w3.org/2000/svg" xmlns:xlink="http://www.w3.org/1999/xlink">
    <!-- Generator: Sketch 51.2 (57519) - http://www.bohemiancoding.com/sketch -->
    <title>people_grey_icon</title>
    <desc>Created with Sketch.</desc>
    <defs></defs>
    <g id="people_grey_icon" stroke="none" stroke-width="1" fill="none" fill-rule="evenodd">
        <g id="people-icon" fill="#AFB7BE">
            <path d="M8.45699531,4.7195171 C9.72111335,4.7195171 10.7496848,3.69094567 10.7496848,2.42682763 C10.7496848,1.16270959 9.72124748,0.134138162 8.45699531,0.134138162 C7.19274313,0.134138162 6.16457411,1.16257545 6.16457411,2.42669349 C6.16457411,3.69081154 7.19287726,4.7195171 8.45699531,4.7195171" id="Fill-1"></path>
            <path d="M6.33881958,4.81517103 C5.46745808,5.12959088 4.84183769,5.96245473 4.84183769,6.94085848 L4.84183769,9.41141516 L12.0724212,9.41141516 L12.0724212,6.94085848 C12.0724212,5.96245473 11.4466667,5.12959088 10.5754393,4.81517103 C10.0105835,5.31671362 9.27000671,5.62415828 8.45699531,5.62415828 C7.64411804,5.62415828 6.90354125,5.31671362 6.33881958,4.81517103 Z" id="Fill-4"></path>
            <path d="M3.24544601,4.79653924 C4.35181757,4.79653924 5.25362844,3.91189805 5.28555332,2.81303823 C5.27012743,2.68614353 5.25979879,2.55777331 5.25979879,2.42685446 L5.25979879,2.42645205 C5.10245473,1.45515761 4.26033535,0.710422535 3.24531187,0.710422535 C2.11868545,0.710422535 1.20211938,1.6269886 1.20211938,2.75348089 C1.20225352,3.87997317 2.11881958,4.79653924 3.24544601,4.79653924" id="Fill-6"></path>
            <path d="M4.28331321,5.50894702 C3.9599061,5.63114688 3.61114688,5.701167 3.24548625,5.701167 C2.53374916,5.701167 1.8800939,5.44751174 1.37023474,5.02604963 C0.56527163,5.37266264 1.34138162e-05,6.1731992 1.34138162e-05,7.10384977 L1.34138162e-05,9.41142857 L3.93723675,9.41142857 L3.93723675,6.94100604 C3.93723675,6.4252448 4.06372904,5.93953052 4.28331321,5.50894702" id="Fill-8"></path>
        </g>
    </g>
</svg>