<?xml version="1.0" encoding="UTF-8"?>
<svg width="19px" height="15px" viewBox="0 0 19 15" version="1.1" xmlns="http://www.w3.org/2000/svg" xmlns:xlink="http://www.w3.org/1999/xlink">
    <!-- Generator: Sketch 51.2 (57519) - http://www.bohemiancoding.com/sketch -->
    <title>people_icon</title>
    <desc>Created with Sketch.</desc>
    <defs>
        <polygon id="path-1" points="0.192535211 0.16861167 7.07020121 0.16861167 7.07020121 7.04657948 0.192535211 7.04657948"></polygon>
    </defs>
    <g id="people_icon" stroke="none" stroke-width="1" fill="none" fill-rule="evenodd">
        <g id="Page-1">
            <g id="Group-3" transform="translate(9.054326, 0.032696)">
                <mask id="mask-2" fill="white">
                    <use xlink:href="#path-1"></use>
                </mask>
                <g id="Clip-2"></g>
                <path d="M3.631167,7.04657948 C5.52734406,7.04657948 7.07020121,5.50372233 7.07020121,3.60754527 C7.07020121,1.71136821 5.52754527,0.168511066 3.631167,0.168511066 C1.73478873,0.168511066 0.192535211,1.711167 0.192535211,3.60734406 C0.192535211,5.50352113 1.73498994,7.04657948 3.631167,7.04657948" id="Fill-1" fill="#00B69C" mask="url(#mask-2)"></path>
            </g>
            <path d="M12.685493,8.43623742 C11.4661771,8.43623742 10.3553119,7.97507042 9.50822938,7.22275654 C8.20118712,7.69438632 7.26275654,8.94368209 7.26275654,10.4112877 L7.26275654,14.1171227 L18.1086318,14.1171227 L18.1086318,10.4112877 C18.1086318,8.94368209 17.17,7.69438632 15.863159,7.22275654 C15.0158753,7.97507042 13.9050101,8.43623742 12.685493,8.43623742" id="Fill-4" fill="#00B69C"></path>
            <path d="M4.86816901,7.19480885 C6.52772636,7.19480885 7.88044266,5.86784708 7.92832998,4.21955734 C7.90519115,4.02921529 7.88969819,3.83665996 7.88969819,3.64028169 L7.88969819,3.63967807 C7.65368209,2.18273642 6.39050302,1.0656338 4.86796781,1.0656338 C3.17802817,1.0656338 1.80317907,2.4404829 1.80317907,4.13022133 C1.80338028,5.81995976 3.17822938,7.19480885 4.86816901,7.19480885" id="Fill-6" fill="#00B69C"></path>
            <path d="M6.42496982,8.26342052 C5.93985915,8.44672032 5.41672032,8.5517505 4.86822938,8.5517505 C3.80062374,8.5517505 2.82014085,8.17126761 2.05535211,7.53907445 C0.847907445,8.05899396 2.01207243e-05,9.25979879 2.01207243e-05,10.6557746 L2.01207243e-05,14.1171429 L5.90585513,14.1171429 L5.90585513,10.4115091 C5.90585513,9.6378672 6.09559356,8.90929577 6.42496982,8.26342052" id="Fill-8" fill="#00B69C"></path>
        </g>
    </g>
</svg>