<?xml version="1.0" encoding="UTF-8"?>
<svg width="9px" height="11px" viewBox="0 0 9 11" version="1.1" xmlns="http://www.w3.org/2000/svg" xmlns:xlink="http://www.w3.org/1999/xlink">
    <!-- Generator: Sketch 51.2 (57519) - http://www.bohemiancoding.com/sketch -->
    <title>person_icon</title>
    <desc>Created with Sketch.</desc>
    <defs>
        <polygon id="path-1" points="0.000147058824 0.0245588235 4.44132353 0.0245588235 4.44132353 4.45095588 0.000147058824 4.45095588"></polygon>
    </defs>
    <g id="person_icon" stroke="none" stroke-width="1" fill="none" fill-rule="evenodd">
        <path d="M7.35307353,10.0686618 C7.76483824,9.98027941 8.02586765,9.61645588 8.00013235,9.17145588 L7.83836765,7.45101471 C7.72072059,6.27454412 7.04425,5.38851471 5.98542647,5.02086765 C5.48542647,5.46204412 4.72086765,5.79660294 4.00013235,5.79660294 C3.27954412,5.79660294 2.51483824,5.51351471 2.01483824,5.05763235 C0.956014706,5.42527941 0.279544118,6.27454412 0.161897059,7.45101471 L0.000132352941,9.17145588 C-0.00722058824,9.63483824 0.250132353,9.98027941 0.661897059,10.0686618 C0.661897059,10.0686618 3.79425,10.9068971 7.35307353,10.0686618" id="Fill-1" fill="#010A2D"></path>
        <g id="Group-6" transform="translate(1.764706, 0.588235)">
            <mask id="mask-2" fill="white">
                <use xlink:href="#path-1"></use>
            </mask>
            <g id="Clip-5"></g>
            <path d="M1.20602941,4.20095588 C1.51485294,4.36272059 1.86779412,4.45095588 2.23544118,4.45095588 C2.60308824,4.45095588 2.95602941,4.36272059 3.26485294,4.20095588 C3.97073529,3.83330882 4.44132353,3.09801471 4.44132353,2.24507353 C4.44132353,1.02448529 3.45602941,0.0244852941 2.22073529,0.0244852941 C1.00014706,0.0244852941 0.000147058824,1.00977941 0.000147058824,2.24507353 C0.0148529412,3.08330882 0.500147059,3.81860294 1.20602941,4.20095588" id="Fill-4" fill="#010A2D" mask="url(#mask-2)"></path>
        </g>
    </g>
</svg>