<?xml version="1.0" encoding="UTF-8"?>
<svg width="24px" height="24px" viewBox="0 0 24 24" version="1.1" xmlns="http://www.w3.org/2000/svg" xmlns:xlink="http://www.w3.org/1999/xlink">
    <!-- Generator: Sketch 51.2 (57519) - http://www.bohemiancoding.com/sketch -->
    <title>phone_icon</title>
    <desc>Created with Sketch.</desc>
    <defs>
        <polygon id="path-1" points="6.23564742e-05 8.06936224e-05 23.8565255 8.06936224e-05 23.8565255 23.9048488 6.23564742e-05 23.9048488"></polygon>
    </defs>
    <g id="phone_icon" stroke="none" stroke-width="1" fill="none" fill-rule="evenodd">
        <g id="Page-1">
            <mask id="mask-2" fill="white">
                <use xlink:href="#path-1"></use>
            </mask>
            <g id="Clip-2"></g>
            <path d="M8.48874146,7.5804878 L5.98279024,9.53297561 L6.15547317,9.84965854 C7.07713171,11.5738537 7.92503415,12.8803902 9.53157073,14.4588293 C11.1076683,16.0352195 12.4917659,16.9267317 14.084839,17.7801951 L14.4047415,17.9546341 L16.3704,15.4381463 C16.6976195,15.0172683 17.2698146,14.8943415 17.761522,15.1404878 L22.4784,17.5720976 C22.7605463,17.712878 22.9586927,17.9581463 23.0505951,18.2806829 L23.0781073,18.3758049 L23.0620098,18.473561 C23.023961,18.702439 22.9809366,18.9617561 22.8073756,19.1874146 L20.8595707,22.1833171 C20.4945951,22.7306341 19.8940098,23.0569756 19.2530341,23.0569756 C19.2190829,23.0569756 19.184839,23.0560976 19.1508878,23.0543415 C18.0726439,22.9960976 17.1477659,22.8766829 16.5463024,22.7186341 C13.2577171,21.8739512 9.87079024,19.8163902 7.00922927,16.9246829 C4.15030244,14.0657561 2.0939122,10.6802927 1.21908293,7.39229268 C1.06074146,6.79053659 0.941326829,5.86478049 0.883082927,4.78595122 C0.84444878,4.09346341 1.15820488,3.45570732 1.72161951,3.07990244 L4.70727805,1.08965854 C4.92327805,0.959121951 5.12113171,0.898829268 5.33098537,0.898829268 C5.40444878,0.898829268 5.52737561,0.898829268 5.66259512,0.955902439 C5.79722927,0.993365854 6.14113171,1.12712195 6.3384,1.5222439 L8.76474146,6.19902439 C8.99830244,6.66614634 8.88474146,7.23395122 8.48874146,7.5804878 Z M7.10727805,1.07180488 C6.84327805,0.568097561 6.39137561,0.210439024 5.83498537,0.0652682927 C5.28444878,-0.0784390244 4.7046439,0.0178536585 4.22405854,0.330439024 L1.24308293,2.3177561 C0.416253659,2.86887805 -0.0470634146,3.80721951 0.00386341463,4.82780488 C0.0940097561,6.09131707 0.210790244,6.96526829 0.370595122,7.57814634 C1.25859512,11.016 3.39049756,14.5519024 6.37322927,17.5346341 C9.35596098,20.5176585 12.8915707,22.6492683 16.328839,23.5372683 C16.9305951,23.6941463 17.8080585,23.8112195 19.0900098,23.904878 L19.2624,23.9037073 C20.1937171,23.9037073 21.0843512,23.4199024 21.5865951,22.6413659 L23.5484488,19.6252683 C23.847278,19.1657561 23.9339122,18.5912195 23.785522,18.0485854 C23.6350829,17.4957073 23.2873756,17.0525854 22.8064976,16.8005854 L18.0960585,14.3721951 C17.2425951,13.9331707 16.1927415,14.1658537 15.5988878,14.9253659 L14.1064976,16.8342439 L13.7766439,16.6457561 C12.3381073,15.8239024 11.2414244,14.9786341 10.1099122,13.8201951 C8.92835122,12.6389268 8.10298537,11.5527805 7.26152195,10.0718049 L7.07420488,9.7422439 L8.98249756,8.25073171 C9.73849756,7.64107317 9.96503415,6.612 9.53361951,5.74858537 L7.10727805,1.07180488 Z" id="Fill-1" fill="#FFFFFF" mask="url(#mask-2)"></path>
        </g>
    </g>
</svg>