<?xml version="1.0" encoding="UTF-8"?>
<svg width="43px" height="40px" viewBox="0 0 43 40" version="1.1" xmlns="http://www.w3.org/2000/svg" xmlns:xlink="http://www.w3.org/1999/xlink">
    <!-- Generator: Sketch 51.2 (57519) - http://www.bohemiancoding.com/sketch -->
    <title>print_icon</title>
    <desc>Created with Sketch.</desc>
    <defs></defs>
    <g id="print_icon" stroke="none" stroke-width="1" fill="none" fill-rule="evenodd">
        <g id="print-icon" fill="#FF9400">
            <path fill="#00B69C" d="M40.208,25.4545455 C40.208,27.4592208 38.5763117,29.0909091 36.5716364,29.0909091 L31.8963117,29.0909091 L31.8963117,23.7402597 L34.6495584,23.7402597 C35.222026,23.7402597 35.6885195,23.2742857 35.6885195,22.7012987 C35.6885195,22.1283117 35.222026,21.6623377 34.6495584,21.6623377 L7.63657143,21.6623377 C7.06358442,21.6623377 6.59761039,22.1283117 6.59761039,22.7012987 C6.59761039,23.2742857 7.06358442,23.7402597 7.63657143,23.7402597 L10.3898182,23.7402597 L10.3898182,29.0909091 L5.71449351,29.0909091 C3.7092987,29.0909091 2.07812987,27.4592208 2.07812987,25.4545455 L2.07812987,13.5584416 C2.07812987,11.5532468 3.7092987,9.92207792 5.71449351,9.92207792 L36.5716364,9.92207792 C38.5763117,9.92207792 40.208,11.5532468 40.208,13.5584416 L40.208,25.4545455 Z M12.4677403,37.7142857 L29.8183896,37.7142857 L29.8183896,23.7402597 L12.4677403,23.7402597 L12.4677403,37.7142857 Z M12.9872208,7.84415584 L29.2989091,7.84415584 L29.2989091,2.54545455 L12.9872208,2.54545455 L12.9872208,7.84415584 Z M42.2859221,13.6103896 C42.2859221,10.4592208 39.7222857,7.8961039 36.5716364,7.8961039 L31.3768312,7.8961039 L31.3768312,1.55844156 C31.3768312,0.985454545 30.9108571,0.519480519 30.3378701,0.519480519 L11.9482597,0.519480519 C11.3752727,0.519480519 10.9092987,0.985454545 10.9092987,1.55844156 L10.9092987,7.8961039 L5.71449351,7.8961039 C2.56332468,7.8961039 0.000207792208,10.4592208 0.000207792208,13.6103896 L0.000207792208,25.4545455 C0.000207792208,28.6051948 2.56332468,31.1688312 5.71449351,31.1688312 L10.3898182,31.1688312 L10.3898182,38.7532468 C10.3898182,39.3257143 10.8557922,39.7922078 11.4287792,39.7922078 L30.8573506,39.7922078 C31.4303377,39.7922078 31.8963117,39.3257143 31.8963117,38.7532468 L31.8963117,31.1688312 L36.5716364,31.1688312 C39.7222857,31.1688312 42.2859221,28.6051948 42.2859221,25.4545455 L42.2859221,13.6103896 Z" id="Fill-1"></path>
            <path fill="#00B69C" d="M35.3769351,13.2467532 L29.6626494,13.2467532 C29.0896623,13.2467532 28.6236883,13.7127273 28.6236883,14.2857143 C28.6236883,14.8587013 29.0896623,15.3246753 29.6626494,15.3246753 L35.3769351,15.3246753 C35.9499221,15.3246753 36.4158961,14.8587013 36.4158961,14.2857143 C36.4158961,13.7127273 35.9499221,13.2467532 35.3769351,13.2467532" id="Fill-4"></path>
            <path fill="#00B69C" d="M23.5328831,27.0647273 L18.7011948,27.0647273 C18.1287273,27.0647273 17.6622338,27.5307013 17.6622338,28.1036883 C17.6622338,28.6766753 18.1287273,29.1426494 18.7011948,29.1426494 L23.5328831,29.1426494 C24.1058701,29.1426494 24.5718442,28.6766753 24.5718442,28.1036883 C24.5718442,27.5307013 24.1058701,27.0647273 23.5328831,27.0647273" id="Fill-6"></path>
            <path fill="#00B69C" d="M25.1430649,32.2595325 L17.1430649,32.2595325 C16.5700779,32.2595325 16.1041039,32.7255065 16.1041039,33.2984935 C16.1041039,33.8714805 16.5700779,34.3374545 17.1430649,34.3374545 L25.1430649,34.3374545 C25.7160519,34.3374545 26.182026,33.8714805 26.182026,33.2984935 C26.182026,32.7255065 25.7160519,32.2595325 25.1430649,32.2595325" id="Fill-8"></path>
        </g>
    </g>
</svg>