<?xml version="1.0" encoding="UTF-8"?>
<svg width="17px" height="20px" viewBox="0 0 17 20" version="1.1" xmlns="http://www.w3.org/2000/svg" xmlns:xlink="http://www.w3.org/1999/xlink">
    <!-- Generator: Sketch 51.2 (57519) - http://www.bohemiancoding.com/sketch -->
    <title>share_icon</title>
    <desc>Created with Sketch.</desc>
    <defs></defs>
    <g id="share_icon" stroke="none" stroke-width="1" fill="none" fill-rule="evenodd">
        <path d="M2.72992701,7.38965952 C3.17664234,7.38965952 3.57372263,7.49054224 3.92116788,7.66708701 L11.540146,3.20302648 C11.2919708,1.51324086 12.5824818,0 14.2452555,0 C15.7839416,0 17,1.26103405 17,2.79949559 C17,5.24590164 14.0963504,6.48171501 12.3591241,4.81715006 L5.21167883,8.97856242 C5.48467153,9.55863808 5.55912409,10.2395965 5.41021898,10.8701135 L12.5328467,15.0315259 C14.2948905,13.5687264 17,14.8297604 17,17.2005044 C17,18.738966 15.7839416,20 14.2452555,20 C12.4832117,20 11.1678832,18.3102144 11.589781,16.5699874 L4.41751825,12.3833544 C2.65547445,13.7957125 0,12.5094578 0,10.1639344 C0,8.62547289 1.21605839,7.38965952 2.72992701,7.38965952" id="Page-1" fill="#00B69C"></path>
    </g>
</svg>