<?xml version="1.0" encoding="UTF-8"?>
<svg width="18px" height="18px" viewBox="0 0 18 18" version="1.1" xmlns="http://www.w3.org/2000/svg" xmlns:xlink="http://www.w3.org/1999/xlink">
    <!-- Generator: Sketch 51.2 (57519) - http://www.bohemiancoding.com/sketch -->
    <title>small bag</title>
    <desc>Created with Sketch.</desc>
    <defs></defs>
    <g id="small-bag" stroke="none" stroke-width="1" fill="none" fill-rule="evenodd">
        <g transform="translate(4.000000, 0.000000)" fill="#AFB7BE" id="Fill-1">
            <path d="M7.93298701,14.6018701 C7.93298701,14.7356364 7.82467532,14.8436883 7.69116883,14.8436883 C7.55766234,14.8436883 7.44961039,14.7356364 7.44961039,14.6018701 L7.44961039,7.08109091 C7.44961039,6.94706494 7.55766234,6.83901299 7.69116883,6.83901299 C7.82467532,6.83901299 7.93298701,6.94706494 7.93298701,7.08109091 L7.93298701,14.6018701 Z M5.22623377,14.6018701 C5.22623377,14.7356364 5.11818182,14.8436883 4.98467532,14.8436883 C4.85116883,14.8436883 4.74311688,14.7356364 4.74311688,14.6018701 L4.74311688,7.08109091 C4.74311688,6.94706494 4.85116883,6.83901299 4.98467532,6.83901299 C5.11818182,6.83901299 5.22623377,6.94706494 5.22623377,7.08109091 L5.22623377,14.6018701 Z M2.51974026,14.6018701 C2.51974026,14.7356364 2.41142857,14.8436883 2.27818182,14.8436883 C2.14467532,14.8436883 2.03662338,14.7356364 2.03662338,14.6018701 L2.03662338,7.08109091 C2.03662338,6.94706494 2.14467532,6.83901299 2.27818182,6.83901299 C2.41142857,6.83901299 2.51974026,6.94706494 2.51974026,7.08109091 L2.51974026,14.6018701 Z M3.23376623,2.13979221 L3.51194805,2.13979221 L3.51194805,1.27849351 C3.51194805,1.12524675 3.63636364,1.00057143 3.78987013,1.00057143 L6.17974026,1.00057143 C6.33350649,1.00057143 6.45766234,1.12524675 6.45766234,1.27849351 L6.45766234,2.13979221 L6.73584416,2.13979221 L6.73584416,3.98836364 L3.23376623,3.98836364 L3.23376623,2.13979221 Z M8.30779221,3.98836364 L7.18051948,3.98836364 L7.18051948,2.13979221 L7.45818182,2.13979221 L7.45818182,1.27849351 C7.45818182,0.573298701 6.88493506,5.19480519e-05 6.17974026,5.19480519e-05 L3.78987013,5.19480519e-05 C3.08467532,5.19480519e-05 2.51142857,0.573818182 2.51142857,1.27849351 L2.51142857,2.13979221 L2.78883117,2.13979221 L2.78883117,3.98836364 L1.66155844,3.98836364 C0.743896104,3.98836364 0,4.73225974 0,5.64992208 L0,16.033039 C0,16.9504416 0.743896104,17.6943377 1.66155844,17.6943377 L8.30779221,17.6943377 C9.22571429,17.6943377 9.96935065,16.9504416 9.96935065,16.033039 L9.96935065,5.64992208 C9.96987013,4.73225974 9.22571429,3.98836364 8.30779221,3.98836364 Z"></path>
        </g>
    </g>
</svg>