<?xml version="1.0" encoding="UTF-8"?>
<svg width="15px" height="15px" viewBox="0 0 15 15" version="1.1" xmlns="http://www.w3.org/2000/svg" xmlns:xlink="http://www.w3.org/1999/xlink">
    <!-- Generator: Sketch 51.2 (57519) - http://www.bohemiancoding.com/sketch -->
    <title>start_date</title>
    <desc>Created with Sketch.</desc>
    <defs>
        <polygon id="path-1" points="0 0 15 0 15 15 0 15"></polygon>
    </defs>
    <g id="start_date" stroke="none" stroke-width="1" fill="none" fill-rule="evenodd">
        <g id="Page-1">
            <mask id="mask-2" fill="white">
                <use xlink:href="#path-1"></use>
            </mask>
            <g id="Clip-2"></g>
            <path d="M6.68039835,11.6934019 L4.67600973,11.6934019 C4.23639108,11.6934019 3.88000488,11.3370157 3.88000488,10.8966404 L3.88000488,8.89225182 C3.88000488,8.45263317 4.23639108,8.09624697 4.67600973,8.09624697 L6.68039835,8.09624697 C7.12077365,8.09624697 7.47715985,8.45263317 7.47715985,8.89225182 L7.47715985,10.8966404 C7.47715985,11.3370157 7.12077365,11.6934019 6.68039835,11.6934019 Z M1.87424334,13.1257567 L13.1242433,13.1257567 L13.1242433,5.49863801 L1.87424334,5.49863801 L1.87424334,13.1257567 Z M11.25,1.875 L11.25,0.938256659 C11.25,0.419945521 10.8300545,0 10.3125,0 C9.79494552,0 9.37424334,0.419945521 9.37424334,0.938256659 L9.37424334,1.875 L5.625,1.875 L5.625,0.938256659 C5.625,0.419945521 5.20505448,0 4.6875,0 C4.16994552,0 3.75,0.419945521 3.75,0.938256659 L3.75,1.875 L1.875,1.875 C0.839891041,1.875 0,2.71489104 0,3.75 L0,13.1257567 C0,14.1608656 0.839891041,15 1.875,15 L13.1242433,15 C14.1593523,15 15,14.1608656 15,13.1257567 L15,3.75 C15,2.71413438 14.1593523,1.875 13.1242433,1.875 L11.25,1.875 Z" id="Fill-1" fill="#00B69C" mask="url(#mask-2)"></path>
        </g>
    </g>
</svg>