<?xml version="1.0" encoding="UTF-8"?>
<svg width="20px" height="20px" viewBox="0 0 20 20" version="1.1" xmlns="http://www.w3.org/2000/svg" xmlns:xlink="http://www.w3.org/1999/xlink">
    <!-- Generator: Sketch 51.2 (57519) - http://www.bohemiancoding.com/sketch -->
    <title>time_icon</title>
    <desc>Created with Sketch.</desc>
    <defs></defs>
    <g id="time_icon" stroke="none" stroke-width="1" fill="none" fill-rule="evenodd">
        <g id="Page-1-Copy-36" fill="#00B69C">
            <path d="M10,1.875 C14.48,1.875 18.125,5.52 18.125,10 C18.125,14.480625 14.48,18.125 10,18.125 C5.52,18.125 1.875,14.480625 1.875,10 C1.875,5.52 5.52,1.875 10,1.875 M10,20 C15.51375,20 20,15.51375 20,10 C20,4.48625 15.51375,0 10,0 C4.48625,0 0,4.48625 0,10 C0,15.51375 4.48625,20 10,20" id="Fill-1"></path>
            <path d="M10,10.936875 L13.75,10.936875 C14.268125,10.936875 14.6875,10.5175 14.6875,9.999375 C14.6875,9.48125 14.268125,9.061875 13.75,9.061875 L10.9375,9.061875 L10.9375,4.375 C10.9375,3.856875 10.518125,3.4375 10,3.4375 C9.481875,3.4375 9.0625,3.856875 9.0625,4.375 L9.0625,9.999375 C9.0625,10.516875 9.481875,10.936875 10,10.936875" id="Fill-3"></path>
        </g>
    </g>
</svg>