<?xml version="1.0" encoding="UTF-8"?>
<svg width="24px" height="24px" viewBox="0 0 24 24" version="1.1" xmlns="http://www.w3.org/2000/svg" xmlns:xlink="http://www.w3.org/1999/xlink">
    <!-- Generator: Sketch 51.2 (57519) - http://www.bohemiancoding.com/sketch -->
    <title>twitter_iconj</title>
    <desc>Created with Sketch.</desc>
    <defs>
        <polygon id="path-1" points="7.05882353e-05 0 23.5284706 0 23.5284706 23.5291059 7.05882353e-05 23.5291059"></polygon>
    </defs>
    <g id="twitter_iconj" stroke="none" stroke-width="1" fill="none" fill-rule="evenodd">
        <g id="Page-1">
            <mask id="mask-2" fill="white">
                <use xlink:href="#path-1"></use>
            </mask>
            <g id="Clip-2"></g>
            <path d="M17.3774824,8.88557647 C17.3831294,9.00981176 17.3859529,9.13475294 17.3859529,9.25969412 C17.3859529,13.0876941 14.4734824,17.5008706 9.14477647,17.5008706 C7.50924706,17.5008706 5.98665882,17.0208706 4.70548235,16.1992235 C4.93065882,16.2260471 5.16218824,16.2401647 5.39583529,16.2401647 C6.75254118,16.2401647 8.00124706,15.7771059 8.99230588,14.9999294 C7.72595294,14.9766353 6.65654118,14.1394588 6.28807059,12.9881647 C6.46454118,13.0227529 6.64665882,13.0411059 6.83301176,13.0411059 C7.09771765,13.0411059 7.35254118,13.0051059 7.59536471,12.9387529 C6.27042353,12.6726353 5.2716,11.5022824 5.2716,10.0996941 C5.2716,10.0869882 5.2716,10.0749882 5.27230588,10.0629882 C5.66265882,10.2796941 6.10948235,10.4095765 6.58383529,10.4251059 C5.80595294,9.90557647 5.2956,9.01898824 5.2956,8.01451765 C5.2956,7.48369412 5.43889412,6.98604706 5.68807059,6.55828235 C7.11607059,8.31098824 9.24995294,9.46298824 11.6570118,9.5844 C11.6083059,9.37192941 11.5828941,9.15098824 11.5828941,8.9244 C11.5828941,7.32487059 12.8796,6.02816471 14.4791294,6.02816471 C15.3120706,6.02816471 16.0652471,6.37969412 16.5939529,6.94228235 C17.2525412,6.8124 17.8730118,6.57169412 18.4327765,6.23992941 C18.2153647,6.91616471 17.7565412,7.48369412 17.1586588,7.84157647 C17.7445412,7.7724 18.3036,7.6164 18.8231294,7.38628235 C18.4334824,7.96651765 17.9428941,8.47687059 17.3774824,8.88557647 Z M7.05882353e-05,23.5291059 L23.5285412,23.5291059 L23.5285412,-7.05882353e-05 L7.05882353e-05,-7.05882353e-05 L7.05882353e-05,23.5291059 Z" id="Fill-1" fill="#FFFFFF" mask="url(#mask-2)"></path>
        </g>
    </g>
</svg>